<svg width="83" height="89" viewBox="0 0 83 89" fill="none" xmlns="http://www.w3.org/2000/svg">
<g clip-path="url(#clip0_21_3)">
<path d="M58.1141 8.00177L24.0268 3.30827C10.7572 1.48116 0 10.4884 0 23.4265V55.393C0 68.3311 10.7572 80.3007 24.0268 82.1278L58.1141 86.8213C71.3838 88.6484 82.141 79.6411 82.141 66.703V34.7366C82.141 21.7984 71.3838 9.82888 58.1141 8.00177Z" fill="#4EE0F4"/>
<path d="M58.5432 4.41461L24.1963 1.82459C10.8331 0.816897 0 10.4884 0 23.4265V55.393C0 68.3311 10.8331 79.6364 24.1963 80.6441L58.5432 83.2341C71.9065 84.2418 82.7396 74.5703 82.7396 61.6322V29.6657C82.7396 16.7276 71.9065 5.42231 58.5432 4.41461Z" fill="#F44E77"/>
<path d="M58.7299 0H24.2701C10.8661 0 0 10.4884 0 23.4265V55.393C0 68.3311 10.8661 78.8195 24.2701 78.8195H58.7299C72.1339 78.8195 83 68.3311 83 55.393V23.4265C83 10.4884 72.1339 0 58.7299 0Z" fill="#6F42CE"/>
<g filter="url(#filter0_dd_21_3)">
<path d="M22.4099 24.0613C22.4099 20.3493 25.5274 17.3403 29.3729 17.3403H41.7579C46.1322 17.3403 49.9832 18.2441 53.3106 20.0517C56.6754 21.8173 59.2738 24.3604 61.1059 27.6814C62.9753 31.0023 63.9099 34.9118 63.9099 39.4097C63.9099 43.9077 62.9753 47.8172 61.1059 51.1381C59.2738 54.459 56.6754 57.0232 53.3106 58.8308C49.9832 60.5965 46.1322 61.4793 41.7579 61.4793H29.3729C25.5274 61.4793 22.4099 58.4701 22.4099 54.7581V24.0613ZM41.1971 49.8769C44.0385 49.8769 46.3004 48.9731 47.9829 47.1656C49.7027 45.3159 50.5626 42.7307 50.5626 39.4097C50.5626 36.0888 49.7027 33.5246 47.9829 31.717C46.3004 29.8673 44.0385 28.9425 41.1971 28.9425H37.0215C36.2614 28.9425 35.6451 29.5374 35.6451 30.2713V48.5484C35.6451 49.2821 36.2614 49.8769 37.0215 49.8769H41.1971Z" fill="white"/>
</g>
</g>
<defs>
<filter id="filter0_dd_21_3" x="21.7217" y="16.3079" width="42.8765" height="46.2039" filterUnits="userSpaceOnUse" color-interpolation-filters="sRGB">
<feFlood flood-opacity="0" result="BackgroundImageFix"/>
<feColorMatrix in="SourceAlpha" type="matrix" values="0 0 0 0 0 0 0 0 0 0 0 0 0 0 0 0 0 0 127 0" result="hardAlpha"/>
<feOffset dy="0.344128"/>
<feGaussianBlur stdDeviation="0.344128"/>
<feColorMatrix type="matrix" values="0 0 0 0 0 0 0 0 0 0 0 0 0 0 0 0 0 0 0.1 0"/>
<feBlend mode="normal" in2="BackgroundImageFix" result="effect1_dropShadow_21_3"/>
<feColorMatrix in="SourceAlpha" type="matrix" values="0 0 0 0 0 0 0 0 0 0 0 0 0 0 0 0 0 0 127 0" result="hardAlpha"/>
<feOffset dy="-0.344128"/>
<feGaussianBlur stdDeviation="0.344128"/>
<feColorMatrix type="matrix" values="0 0 0 0 0 0 0 0 0 0 0 0 0 0 0 0 0 0 0.05 0"/>
<feBlend mode="normal" in2="effect1_dropShadow_21_3" result="effect2_dropShadow_21_3"/>
<feBlend mode="normal" in="SourceGraphic" in2="effect2_dropShadow_21_3" result="shape"/>
</filter>
<clipPath id="clip0_21_3">
<rect width="83" height="88.4605" fill="white"/>
</clipPath>
</defs>
</svg>
